<mxfile host="app.diagrams.net" modified="2023-05-05T15:16:17.722Z" agent="Mozilla/5.0 (X11; Linux x86_64) AppleWebKit/537.36 (KHTML, like Gecko) Chrome/113.0.0.0 Safari/537.36" etag="oo5pj7sv-tcSnlNiW9fG" version="21.2.9" type="device">
  <diagram name="Page-1" id="VoXfhF0RkNLTHDeKrhjN">
    <mxGraphModel dx="1221" dy="681" grid="1" gridSize="10" guides="1" tooltips="1" connect="1" arrows="1" fold="1" page="1" pageScale="1" pageWidth="827" pageHeight="1169" math="0" shadow="0">
      <root>
        <mxCell id="0" />
        <mxCell id="1" parent="0" />
        <mxCell id="zD3DmaDwZ_5J_OtKSSG1-1" value="&lt;div style=&quot;&quot;&gt;&lt;span style=&quot;font-size: 22px; background-color: initial;&quot;&gt;&lt;b&gt;RIP&lt;/b&gt; =&amp;nbsp;&lt;/span&gt;&lt;span style=&quot;font-size: 22px; background-color: initial;&quot;&gt;0x40114E&lt;/span&gt;&lt;/div&gt;&lt;font style=&quot;&quot;&gt;&lt;div style=&quot;&quot;&gt;&lt;span style=&quot;font-size: 22px;&quot;&gt;&lt;br&gt;&lt;/span&gt;&lt;/div&gt;&lt;font style=&quot;font-size: 22px;&quot;&gt;&lt;div style=&quot;&quot;&gt;&lt;span style=&quot;background-color: initial;&quot;&gt;&lt;b&gt;EAX&lt;/b&gt; = eax_val&lt;/span&gt;&lt;/div&gt;&lt;/font&gt;&lt;span style=&quot;font-size: 22px;&quot;&gt;&lt;div style=&quot;&quot;&gt;&lt;span style=&quot;background-color: initial;&quot;&gt;...&amp;nbsp;&lt;/span&gt;&lt;br&gt;&lt;/div&gt;&lt;/span&gt;&lt;/font&gt;" style="rounded=0;whiteSpace=wrap;html=1;fillColor=#dae8fc;strokeColor=#6c8ebf;align=left;" parent="1" vertex="1">
          <mxGeometry x="260" y="190" width="220" height="170" as="geometry" />
        </mxCell>
        <mxCell id="zD3DmaDwZ_5J_OtKSSG1-2" value="&lt;div style=&quot;&quot;&gt;&lt;span style=&quot;font-size: 22px; background-color: initial;&quot;&gt;&lt;b&gt;RIP&lt;/b&gt; =&amp;nbsp;&lt;/span&gt;&lt;span style=&quot;font-size: 22px; background-color: initial;&quot;&gt;&lt;u&gt;0x401157&lt;/u&gt;&lt;/span&gt;&lt;/div&gt;&lt;font style=&quot;font-size: 22px;&quot;&gt;&lt;div style=&quot;&quot;&gt;&lt;span style=&quot;&quot;&gt;&lt;br&gt;&lt;/span&gt;&lt;/div&gt;&lt;font style=&quot;font-size: 22px;&quot;&gt;&lt;div style=&quot;&quot;&gt;&lt;span style=&quot;background-color: initial;&quot;&gt;&lt;b&gt;EAX&lt;/b&gt; = eax_val&lt;/span&gt;&lt;/div&gt;&lt;/font&gt;&lt;span style=&quot;font-size: 22px;&quot;&gt;&lt;div style=&quot;&quot;&gt;&lt;span style=&quot;background-color: initial;&quot;&gt;...&amp;nbsp;&lt;/span&gt;&lt;br&gt;&lt;/div&gt;&lt;/span&gt;&lt;/font&gt;" style="rounded=0;whiteSpace=wrap;html=1;fillColor=#f8cecc;strokeColor=#b85450;align=left;" parent="1" vertex="1">
          <mxGeometry x="480" y="450" width="210" height="170" as="geometry" />
        </mxCell>
        <mxCell id="zD3DmaDwZ_5J_OtKSSG1-3" value="&lt;div style=&quot;&quot;&gt;&lt;span style=&quot;background-color: initial; font-size: 22px;&quot;&gt;&lt;b&gt;RIP&lt;/b&gt; =&amp;nbsp;&lt;/span&gt;&lt;span style=&quot;background-color: initial; font-size: 22px;&quot;&gt;&lt;u&gt;0x401150&lt;/u&gt;&lt;/span&gt;&lt;br&gt;&lt;/div&gt;&lt;font style=&quot;&quot;&gt;&lt;div style=&quot;&quot;&gt;&lt;span style=&quot;font-size: 22px;&quot;&gt;&lt;br&gt;&lt;/span&gt;&lt;/div&gt;&lt;font style=&quot;font-size: 22px;&quot;&gt;&lt;div style=&quot;&quot;&gt;&lt;span style=&quot;background-color: initial;&quot;&gt;&lt;b&gt;EAX&lt;/b&gt; = eax_val&lt;/span&gt;&lt;/div&gt;&lt;/font&gt;&lt;span style=&quot;font-size: 22px;&quot;&gt;&lt;div style=&quot;&quot;&gt;&lt;span style=&quot;background-color: initial;&quot;&gt;...&amp;nbsp;&lt;/span&gt;&lt;br&gt;&lt;/div&gt;&lt;/span&gt;&lt;/font&gt;" style="rounded=0;whiteSpace=wrap;html=1;fillColor=#d5e8d4;strokeColor=#82b366;align=left;" parent="1" vertex="1">
          <mxGeometry x="40" y="450" width="220" height="170" as="geometry" />
        </mxCell>
        <mxCell id="zD3DmaDwZ_5J_OtKSSG1-4" value="&lt;b&gt;Contraintes&lt;/b&gt;&lt;br style=&quot;font-size: 18px;&quot;&gt;eax_val == 0xDEADBEEF&lt;br&gt;(...)" style="rounded=0;whiteSpace=wrap;html=1;fontSize=18;" parent="1" vertex="1">
          <mxGeometry x="40" y="620" width="220" height="70" as="geometry" />
        </mxCell>
        <mxCell id="zD3DmaDwZ_5J_OtKSSG1-6" value="&lt;b&gt;Contraintes&lt;/b&gt;&lt;br style=&quot;font-size: 18px;&quot;&gt;eax_val != 0xDEADBEEF&lt;br&gt;(...)" style="rounded=0;whiteSpace=wrap;html=1;fontSize=18;" parent="1" vertex="1">
          <mxGeometry x="480" y="620" width="210" height="70" as="geometry" />
        </mxCell>
        <mxCell id="zD3DmaDwZ_5J_OtKSSG1-7" value="" style="endArrow=classic;html=1;rounded=0;entryX=0.467;entryY=-0.012;entryDx=0;entryDy=0;entryPerimeter=0;" parent="1" target="zD3DmaDwZ_5J_OtKSSG1-2" edge="1">
          <mxGeometry width="50" height="50" relative="1" as="geometry">
            <mxPoint x="483" y="300" as="sourcePoint" />
            <mxPoint x="440" y="390" as="targetPoint" />
            <Array as="points">
              <mxPoint x="580" y="300" />
            </Array>
          </mxGeometry>
        </mxCell>
        <mxCell id="zD3DmaDwZ_5J_OtKSSG1-8" value="" style="endArrow=classic;html=1;rounded=0;entryX=0.5;entryY=0;entryDx=0;entryDy=0;exitX=0.005;exitY=0.647;exitDx=0;exitDy=0;exitPerimeter=0;" parent="1" source="zD3DmaDwZ_5J_OtKSSG1-1" target="zD3DmaDwZ_5J_OtKSSG1-3" edge="1">
          <mxGeometry width="50" height="50" relative="1" as="geometry">
            <mxPoint x="250" y="200" as="sourcePoint" />
            <mxPoint x="440" y="390" as="targetPoint" />
            <Array as="points">
              <mxPoint x="150" y="300" />
            </Array>
          </mxGeometry>
        </mxCell>
        <mxCell id="zD3DmaDwZ_5J_OtKSSG1-9" value="&lt;b&gt;Contraintes&lt;/b&gt;&lt;br style=&quot;font-size: 18px;&quot;&gt;(...)" style="rounded=0;whiteSpace=wrap;html=1;fontSize=18;" parent="1" vertex="1">
          <mxGeometry x="260" y="360" width="220" height="60" as="geometry" />
        </mxCell>
        <mxCell id="nhGIZWOJTlp-8iEsSKv_-1" value="&lt;font style=&quot;font-size: 17px;&quot;&gt;state_rouge&lt;/font&gt;" style="text;html=1;strokeColor=none;fillColor=none;align=center;verticalAlign=middle;whiteSpace=wrap;rounded=0;fontStyle=1" vertex="1" parent="1">
          <mxGeometry x="560" y="690" width="60" height="30" as="geometry" />
        </mxCell>
        <mxCell id="nhGIZWOJTlp-8iEsSKv_-2" value="&lt;font style=&quot;font-size: 17px;&quot;&gt;state_0&lt;/font&gt;" style="text;html=1;strokeColor=none;fillColor=none;align=center;verticalAlign=middle;whiteSpace=wrap;rounded=0;fontStyle=1" vertex="1" parent="1">
          <mxGeometry x="340" y="160" width="60" height="30" as="geometry" />
        </mxCell>
        <mxCell id="nhGIZWOJTlp-8iEsSKv_-3" value="&lt;font style=&quot;font-size: 17px;&quot;&gt;state_vert&lt;/font&gt;" style="text;html=1;strokeColor=none;fillColor=none;align=center;verticalAlign=middle;whiteSpace=wrap;rounded=0;fontStyle=1" vertex="1" parent="1">
          <mxGeometry x="120" y="690" width="60" height="30" as="geometry" />
        </mxCell>
      </root>
    </mxGraphModel>
  </diagram>
</mxfile>
